<?xml version="1.0" standalone="no"?>
<!DOCTYPE svg PUBLIC "-//W3C//DTD SVG 20010904//EN"
 "http://www.w3.org/TR/2001/REC-SVG-20010904/DTD/svg10.dtd">
<svg version="1.0" xmlns="http://www.w3.org/2000/svg"
 width="1280.000000pt" height="853.000000pt" viewBox="0 0 1280.000000 853.000000"
 preserveAspectRatio="xMidYMid meet">

<g transform="translate(0.000000,853.000000) scale(0.100000,-0.100000)"
fill="#000000" stroke="none">
<path d="M3625 5283 c-165 -88 -676 -415 -709 -454 -14 -16 -30 -46 -36 -67
-6 -23 -10 -200 -10 -460 0 -453 1 -464 51 -508 13 -11 83 -54 154 -94 72 -41
228 -132 348 -202 139 -82 229 -130 248 -130 20 -1 44 12 82 43 230 191 777
693 804 738 20 31 23 50 23 133 0 53 -4 99 -8 102 -13 8 -128 -69 -222 -148
-47 -40 -123 -104 -170 -143 -47 -38 -146 -126 -221 -194 l-137 -125 -128 62
c-129 63 -164 74 -164 52 0 -6 29 -67 65 -136 36 -69 64 -127 62 -129 -2 -2
-46 22 -98 54 -52 31 -175 103 -274 161 -99 57 -183 107 -188 111 -4 4 -6 132
-5 284 l3 277 100 -66 c156 -105 435 -275 493 -300 62 -28 93 -30 153 -9 49
18 233 124 534 308 l200 123 3 117 c1 64 -1 117 -5 117 -13 0 -325 -165 -423
-222 -222 -132 -366 -212 -381 -211 -9 1 -57 26 -107 57 -80 48 -210 124 -450
262 l-73 42 83 48 c46 26 173 103 284 171 110 68 209 123 220 123 10 0 35 -10
54 -22 19 -11 127 -77 240 -145 l204 -125 93 44 c59 27 92 49 93 59 0 26 -65
85 -143 130 -39 23 -169 100 -287 170 -245 147 -263 152 -355 102z"/>
<path d="M5295 4681 c-190 -50 -288 -209 -272 -439 11 -147 77 -254 197 -318
29 -16 57 -19 160 -19 118 0 128 2 171 27 68 40 124 107 145 172 10 31 14 59
10 63 -10 10 -160 4 -164 -7 -9 -24 -50 -75 -75 -94 -43 -32 -141 -30 -191 4
-128 85 -119 377 13 449 89 49 188 22 230 -61 l23 -48 78 0 c44 0 81 4 85 9 3
5 -4 34 -15 63 -27 73 -105 151 -179 179 -61 23 -169 33 -216 20z"/>
<path d="M8682 4675 c-73 -21 -107 -40 -153 -88 -70 -72 -109 -176 -109 -294
0 -163 60 -282 177 -353 57 -35 57 -35 183 -35 111 0 130 3 167 23 90 48 159
136 165 212 l3 31 -79 2 -80 2 -26 -45 c-71 -123 -244 -116 -313 13 -19 36
-22 57 -22 147 0 94 3 110 26 155 34 64 92 99 161 98 63 -1 107 -28 138 -86
l25 -47 82 0 c45 0 84 4 88 10 3 5 -7 37 -23 72 -34 76 -110 148 -180 173 -68
23 -167 28 -230 10z"/>
<path d="M7130 4605 l0 -75 110 0 110 0 2 -307 3 -308 78 -3 77 -3 0 311 0
310 110 0 110 0 0 75 0 75 -300 0 -300 0 0 -75z"/>
<path d="M7825 4670 c-8 -14 -4 -735 4 -749 5 -8 77 -11 247 -9 l239 3 0 70 0
70 -167 3 -168 2 0 90 0 90 170 0 170 0 0 65 0 65 -170 0 -170 0 0 80 0 80
170 0 170 0 0 75 0 75 -244 0 c-150 0 -247 -4 -251 -10z"/>
<path d="M9220 4295 l0 -385 80 0 80 0 0 160 0 160 155 0 155 0 0 -160 0 -161
78 3 77 3 0 379 0 380 -77 0 -78 1 0 -152 0 -153 -155 0 -155 0 0 155 0 155
-80 0 -80 0 0 -385z"/>
<path d="M5822 4293 l3 -378 238 -3 237 -2 0 70 0 70 -160 0 -160 0 0 310 0
310 -80 0 -80 0 2 -377z"/>
<path d="M6410 4562 c0 -60 -3 -231 -7 -381 l-6 -272 84 3 84 3 3 158 3 157
149 0 149 0 3 -157 3 -158 83 -3 82 -3 0 381 0 381 -82 -3 -83 -3 -3 -147 -3
-148 -144 0 -144 0 -3 148 -3 147 -82 3 -83 3 0 -109z"/>
</g>
</svg>
